<svg width="154" height="28" viewBox="0 0 154 28" fill="none" xmlns="http://www.w3.org/2000/svg">
<g clip-path="url(#clip0_21_70)">
<path d="M48.7502 10.0513L49.9925 7.53846C49.9925 7.53846 48.7502 6.54411 46.3665 6.54411C43.5327 6.54411 38.6429 8.90257 38.6429 15.0805C38.6429 21.2585 44.2925 21.7287 47.922 20.0021L47.4035 17.2774C46.2456 17.7443 45.0048 17.9727 43.756 17.9487C40.2848 17.9487 41.5271 9.33334 45.9848 9.33334C48.0049 9.33334 48.7322 10.0513 48.7322 10.0513M60.4455 7.64616L59.0484 10.3133C59.0484 10.3133 58.0618 9.37282 55.7825 9.37282C53.5032 9.37282 52.7219 11.5267 55.0047 12.0938C57.2876 12.661 59.5525 13.9749 59.5525 16.3836C59.5525 18.7923 57.7521 20.8349 53.7913 20.8349C49.8305 20.8349 48.815 19.5246 48.815 19.5246L49.8953 17.0656C51.1225 17.7179 52.4983 18.0419 53.8885 18.0062C55.3288 18.0062 56.2722 17.7441 56.2722 16.7497C56.2722 15.7554 55.6493 15.3892 54.4718 15.0769C53.2944 14.7646 49.3804 13.641 50.4786 10.1015C51.6308 6.43641 55.5917 5.6 60.4455 7.64257M70.6573 10.0513L71.9535 7.38411C71.9535 7.38411 70.6069 6.59795 68.2736 6.59795C65.9403 6.59795 61.1188 7.64616 60.5499 14.8544C59.981 22.0626 68.324 21.6103 70.9165 19.618L71.9967 12.7974H67.5462L66.394 15.5472H68.5544L68.3492 17.3421C68.3492 17.3421 67.9639 17.9487 66.1491 17.9487C62.4151 17.9487 62.8832 9.41231 67.8055 9.41231C70.0883 9.41231 70.6573 10.0405 70.6573 10.0405M78.1432 18.2359C74.1464 18.2359 75.7847 9.40154 80.0841 9.40154C84.3834 9.40154 82.6046 18.2359 78.1432 18.2359ZM80.0769 6.63026C74.3769 6.63026 72.9149 12.9913 72.9149 14.98C72.9149 16.9687 73.3326 20.9174 77.9272 20.9174C82.5218 20.9174 85.2404 17.0297 85.2404 12.6C85.2404 8.68 83.5372 6.63026 80.0769 6.63026Z" fill="white"/>
<path d="M143.854 7.33744H153.5L152.539 10.0046H146.691L146.244 12.4708H151.123L150.587 15.2062H145.776L145.251 18.121H151.732L151.195 20.8205H141.524L143.854 7.33744ZM90.0762 7.33744H99.7226L98.7612 10.0046H92.9208L92.4707 12.4708H97.3605L96.824 15.2062H92.0026L91.4661 18.121H97.9474L97.4181 20.8205H87.7501L90.0762 7.33744ZM122.159 12.0041C121.831 13.8528 119.566 13.7415 119.566 13.7415H118.036L118.637 10.0513H120.618C120.917 10.0513 122.487 10.1482 122.159 11.9969M121.021 7.23692L115.886 7.29795L113.532 20.8564H116.772L117.525 16.6672H119.376C119.376 16.6672 124.651 16.9687 125.436 11.9036C126.03 8.04462 122.839 7.23692 121.018 7.23692M138.049 11.9933C137.721 13.5118 135.482 13.4005 135.482 13.4005H133.951L134.524 10.0621H136.504C136.807 10.0621 138.445 10.1733 138.049 12.0077M138.676 15.0446C138.676 15.0446 141.599 14.2441 141.599 11.0708C141.599 7.89744 139.079 7.26205 137.999 7.26205C136.918 7.26205 131.877 7.20821 131.877 7.20821L129.526 20.8492H132.806L133.624 16.0497H135.619C135.619 16.0497 137.203 17.3744 137.502 20.7164H140.642C140.642 20.7164 140.48 16.5236 138.676 15.0626M130.603 7.26205L128.154 20.9031H124.914L127.24 7.26205H130.603ZM98.3975 20.799L100.785 7.26205H105.174L106.254 14.3482L109.963 7.26205H114.5L112.142 20.799H108.901L110.453 12.3559L107.115 18.4154H104.339L103.143 11.7851L101.703 20.7379L98.3975 20.799Z" fill="#E9B10E"/>
<path d="M28.586 14C28.6074 16.7734 27.802 19.4907 26.272 21.8071C24.742 24.1235 22.5563 25.9347 19.9923 27.0108C17.4282 28.087 14.6013 28.3797 11.8702 27.8517C9.13901 27.3237 6.6267 25.9989 4.65194 24.0453C2.67717 22.0918 1.32894 19.5974 0.778277 16.8788C0.227612 14.1602 0.499331 11.3397 1.55896 8.7753C2.61859 6.21085 4.41838 4.01796 6.73002 2.47481C9.04166 0.931651 11.761 0.107776 14.543 0.107694C16.3801 0.100609 18.2005 0.454326 19.9005 1.14865C21.6004 1.84297 23.1465 2.8643 24.4505 4.15432C25.7545 5.44434 26.7909 6.9778 27.5005 8.66712C28.21 10.3564 28.5789 12.1686 28.586 14Z" fill="#363332"/>
<path d="M25.673 13.2821C25.6922 15.6484 25.0059 17.967 23.7012 19.9438C22.3964 21.9207 20.5321 23.4665 18.3446 24.3852C16.1571 25.3039 13.7452 25.5541 11.4149 25.104C9.08461 24.6539 6.94095 23.5238 5.25596 21.8571C3.57097 20.1904 2.4206 18.0622 1.95083 15.7426C1.48106 13.4231 1.71307 11.0166 2.61741 8.82874C3.52176 6.64084 5.05767 4.77008 7.03025 3.45385C9.00284 2.13763 11.3232 1.43527 13.6968 1.4359C16.8604 1.42445 19.8991 2.66587 22.1448 4.88726C24.3906 7.10864 25.6596 10.1282 25.673 13.2821Z" fill="#E9B10E"/>
<path d="M23.0768 12.5031C23.0925 14.6116 22.4798 16.6772 21.3165 18.4382C20.1532 20.1992 18.4916 21.5761 16.5424 22.3945C14.5932 23.2129 12.4441 23.4359 10.3677 23.0352C8.29118 22.6345 6.38079 21.6282 4.87868 20.1438C3.37657 18.6594 2.35039 16.7637 1.93022 14.6972C1.51005 12.6307 1.71481 10.4863 2.51855 8.53595C3.32229 6.58558 4.68882 4.91705 6.44489 3.74186C8.20096 2.56668 10.2675 1.93778 12.3825 1.93488C13.781 1.92779 15.1672 2.19563 16.4618 2.72307C17.7564 3.25051 18.934 4.02722 19.9272 5.00876C20.9205 5.99029 21.7099 7.15741 22.2503 8.44336C22.7908 9.7293 23.0716 11.1088 23.0768 12.5031Z" fill="white"/>
<path d="M3.77669 8.31743L7.01738 5.65384C7.39528 5.34545 7.8685 5.17678 8.35686 5.17641H12.4545C12.607 5.179 12.7546 5.22975 12.8763 5.32136C12.9979 5.41296 13.0873 5.54069 13.1315 5.68615L14.8742 11.8462L10.5821 15.3605L6.54208 14.4164C6.33054 14.3666 6.13339 14.2688 5.966 14.1306C5.79862 13.9923 5.66552 13.8174 5.57707 13.6195L3.58225 9.14666C3.52166 9.00585 3.50785 8.8494 3.54283 8.7002C3.57782 8.551 3.65976 8.41688 3.77669 8.31743Z" fill="#E9B10E"/>
<path d="M4.27361 9.01744L8.32087 9.18974C8.53157 9.19753 8.73501 9.2685 8.90461 9.39339C9.0742 9.51828 9.20206 9.69126 9.27147 9.88974L10.8414 14.3374C10.8599 14.3966 10.8627 14.4595 10.8496 14.52C10.8364 14.5805 10.8078 14.6367 10.7665 14.6829C10.7252 14.7292 10.6726 14.764 10.6138 14.7839C10.555 14.8039 10.492 14.8084 10.4309 14.7969L6.83016 13.9677C6.61788 13.9198 6.41976 13.8231 6.25159 13.6854C6.08342 13.5477 5.94986 13.3727 5.86155 13.1744L4.10078 9.26154C4.08233 9.21957 4.08103 9.17207 4.09717 9.12917C4.11331 9.08626 4.14561 9.05132 4.1872 9.0318C4.21402 9.01882 4.24402 9.01383 4.27361 9.01744ZM4.32042 8.41077L7.057 6.25692C7.54698 5.86594 8.1542 5.64983 8.78177 5.64308L12.1413 5.61795C12.1643 5.61747 12.1871 5.62158 12.2085 5.63002C12.2299 5.63847 12.2494 5.65108 12.2658 5.66713C12.2823 5.68318 12.2953 5.70234 12.3042 5.72348C12.3131 5.74462 12.3177 5.76732 12.3177 5.79026C12.3179 5.81431 12.3132 5.83814 12.3039 5.86034C12.2946 5.88254 12.2809 5.90265 12.2637 5.91949L9.57754 8.5041C9.44067 8.63672 9.27813 8.74014 9.09983 8.80803C8.92153 8.87592 8.73122 8.90687 8.54052 8.89898L4.42125 8.72308C4.3857 8.72102 4.35162 8.7083 4.32346 8.68658C4.29531 8.66486 4.27441 8.63515 4.2635 8.60136C4.25259 8.56758 4.25219 8.53129 4.26235 8.49728C4.27251 8.46326 4.29276 8.4331 4.32042 8.41077ZM9.862 8.71949L12.5446 6.13846C12.5776 6.1058 12.6223 6.08747 12.6688 6.08747C12.7153 6.08747 12.76 6.1058 12.793 6.13846C12.8121 6.16006 12.8257 6.18592 12.8326 6.21385L13.9993 10.2667C14.061 10.4834 14.0693 10.7117 14.0235 10.9324C13.9777 11.153 13.8793 11.3593 13.7364 11.5338L11.4607 14.3338C11.4461 14.3518 11.428 14.3667 11.4076 14.3776C11.3872 14.3886 11.3648 14.3954 11.3417 14.3978C11.3187 14.4001 11.2953 14.3979 11.2731 14.3912C11.2509 14.3846 11.2302 14.3736 11.2123 14.359C11.1875 14.338 11.1688 14.3107 11.1583 14.28L9.60994 9.81795C9.54312 9.62987 9.53134 9.42673 9.57597 9.23223C9.6206 9.03773 9.7198 8.8599 9.862 8.71949Z" fill="#363332"/>
<path d="M8.52248 7.45231C8.85375 7.29077 9.05179 7.01795 8.96537 6.84564C8.87895 6.67334 8.54408 6.65898 8.21641 6.82052C7.88874 6.98205 7.70151 7.25129 7.76992 7.42718C7.83833 7.60308 8.19121 7.61026 8.52248 7.45231ZM7.2046 13.458C7.36663 13.3 7.30182 12.9697 7.05697 12.7185C6.81212 12.4672 6.48445 12.3918 6.33682 12.5462C6.18918 12.7005 6.2396 13.0344 6.48445 13.2856C6.7293 13.5369 7.04257 13.6123 7.2046 13.458ZM8.6053 10.9774C8.76733 10.8231 8.70252 10.4928 8.46127 10.2595C8.22002 10.0262 7.88875 9.92923 7.74111 10.0872C7.59348 10.2451 7.64389 10.5754 7.88514 10.8267C8.1264 11.078 8.44326 11.1282 8.6053 10.9774ZM11.6623 13.2354C11.7333 13.2119 11.7989 13.1746 11.8554 13.1258C11.9119 13.077 11.9582 13.0175 11.9917 12.9508C12.0251 12.8842 12.0451 12.8116 12.0503 12.7372C12.0556 12.6628 12.0461 12.5881 12.0224 12.5174C11.9612 12.1585 11.7056 11.9323 11.4535 11.9754C11.3825 11.9989 11.3169 12.0362 11.2604 12.085C11.2039 12.1338 11.1576 12.1933 11.1242 12.2599C11.0907 12.3266 11.0708 12.3992 11.0655 12.4736C11.0602 12.548 11.0697 12.6226 11.0934 12.6933C11.1582 13.038 11.4103 13.2821 11.6623 13.2354ZM13.3655 11.3077C13.4365 11.2842 13.5021 11.2469 13.5586 11.1981C13.6151 11.1493 13.6614 11.0898 13.6948 11.0231C13.7283 10.9565 13.7482 10.8839 13.7535 10.8095C13.7588 10.7351 13.7493 10.6605 13.7256 10.5897C13.6644 10.2308 13.4087 10.0046 13.1567 10.0477C13.0857 10.0712 13.0201 10.1085 12.9636 10.1573C12.9071 10.2061 12.8608 10.2656 12.8273 10.3322C12.7939 10.3989 12.774 10.4715 12.7687 10.5459C12.7634 10.6203 12.7729 10.6949 12.7966 10.7656C12.8614 11.1282 13.1026 11.3508 13.3655 11.3077ZM12.0656 10.8877C12.1366 10.8642 12.2022 10.8269 12.2587 10.7781C12.3152 10.7293 12.3615 10.6698 12.395 10.6031C12.4284 10.5365 12.4483 10.4639 12.4536 10.3895C12.4589 10.3151 12.4494 10.2405 12.4257 10.1697C12.3645 9.82872 12.1124 9.58462 11.8604 9.6277C11.7894 9.65122 11.7238 9.68846 11.6673 9.73729C11.6108 9.78611 11.5645 9.84557 11.531 9.91225C11.4976 9.97893 11.4777 10.0515 11.4724 10.1259C11.4671 10.2003 11.4766 10.2749 11.5003 10.3456C11.5579 10.6903 11.8136 10.9344 12.0656 10.8877ZM10.6253 10.3528C10.7645 10.3052 10.8797 10.2057 10.9469 10.0752C11.014 9.94465 11.0278 9.79328 10.9854 9.65282C10.9242 9.29385 10.6685 9.06411 10.4165 9.11077C10.2768 9.15762 10.1609 9.25702 10.0937 9.38778C10.0264 9.51854 10.013 9.67032 10.0564 9.81077C10.1356 10.1554 10.3877 10.4103 10.6397 10.3528H10.6253ZM12.5157 8.45744C12.5867 8.43392 12.6523 8.39667 12.7088 8.34785C12.7653 8.29902 12.8116 8.23957 12.8451 8.17289C12.8785 8.10621 12.8984 8.03361 12.9037 7.95924C12.909 7.88487 12.8995 7.8102 12.8758 7.73949C12.8146 7.38052 12.5625 7.15436 12.3069 7.19744C12.2359 7.22096 12.1703 7.2582 12.1138 7.30703C12.0573 7.35586 12.011 7.41531 11.9775 7.48199C11.9441 7.54867 11.9242 7.62127 11.9189 7.69564C11.9136 7.77001 11.9231 7.84468 11.9468 7.91539C12.0224 8.25641 12.2745 8.50411 12.5301 8.45744H12.5157Z" fill="white"/>
<path d="M9.8944 9.66718L14.8671 9.05333C15.3478 8.99329 15.8347 9.09974 16.2461 9.35487L20.4554 11.979C20.5853 12.0624 20.6849 12.1853 20.7393 12.3294C20.7938 12.4736 20.8003 12.6314 20.7579 12.7795L18.9575 18.559C18.8905 18.7667 18.7768 18.9564 18.6252 19.1138C18.4736 19.2712 18.288 19.392 18.0825 19.4672L13.2071 21.1795C13.0827 21.2185 12.9499 21.223 12.8231 21.1927C12.6963 21.1623 12.5801 21.0982 12.487 21.0072L8.9438 17.4174C8.70858 17.1786 8.53392 16.8872 8.43435 16.5676C8.33477 16.2479 8.31315 15.9092 8.37128 15.5795L9.28588 10.2451C9.31384 10.0974 9.38762 9.96217 9.4968 9.85848C9.60598 9.75478 9.74505 9.68787 9.8944 9.66718Z" fill="#E9B10E"/>
<path d="M15.49 13.8744L19.8793 12.9949C19.9022 12.9902 19.9259 12.9901 19.9489 12.9946C19.9719 12.9992 19.9937 13.0082 20.0132 13.0212C20.0326 13.0343 20.0492 13.051 20.0621 13.0705C20.075 13.09 20.0838 13.1119 20.0881 13.1349C20.0931 13.1634 20.0931 13.1925 20.0881 13.221L18.5902 18.06C18.5263 18.2687 18.4141 18.4596 18.2628 18.6174C18.1115 18.7751 17.9252 18.8952 17.7188 18.9682L13.5708 20.4615C13.5488 20.4695 13.5254 20.473 13.5021 20.4719C13.4787 20.4708 13.4558 20.465 13.4347 20.455C13.4136 20.445 13.3947 20.4309 13.3791 20.4135C13.3635 20.3961 13.3516 20.3759 13.3439 20.3538C13.3326 20.3225 13.3326 20.2883 13.3439 20.2569L14.6762 14.6749C14.7207 14.4778 14.8211 14.2976 14.9654 14.1557C15.1096 14.0138 15.2917 13.9161 15.49 13.8744ZM10.5821 10.019L15.0291 9.57026C15.333 9.53785 15.6392 9.60596 15.9004 9.76411L19.584 11.9933C19.662 12.0429 19.7179 12.1206 19.74 12.2101C19.7621 12.2997 19.7488 12.3943 19.7029 12.4744C19.6769 12.5157 19.6428 12.5514 19.6025 12.5792C19.5623 12.6069 19.5168 12.6262 19.4688 12.6359L15.2415 13.4723C15.0557 13.5098 14.8642 13.5094 14.6786 13.4712C14.4929 13.4329 14.3169 13.3576 14.1613 13.2497L10.4093 10.658C10.3534 10.6145 10.3115 10.5556 10.289 10.4886C10.2665 10.4216 10.2644 10.3495 10.2828 10.2812C10.3013 10.213 10.3395 10.1517 10.3928 10.1051C10.446 10.0584 10.5119 10.0285 10.5821 10.019ZM9.89798 10.7369L13.7724 13.4544C13.9439 13.5758 14.0747 13.7458 14.1479 13.9424C14.2211 14.1389 14.2333 14.3529 14.1829 14.5564L12.8038 20.1995C12.7919 20.2442 12.7631 20.2825 12.7236 20.3066C12.684 20.3307 12.6366 20.3386 12.5913 20.3287C12.5604 20.3219 12.5319 20.307 12.5085 20.2856L9.42988 17.3169C9.18049 17.0778 8.99414 16.781 8.88736 16.4529C8.78058 16.1248 8.75667 15.7754 8.81775 15.4359L9.61712 10.8374C9.62506 10.7919 9.65066 10.7513 9.6884 10.7244C9.72614 10.6975 9.77297 10.6866 9.81876 10.6938C9.84454 10.7019 9.86886 10.714 9.89078 10.7297L9.89798 10.7369Z" fill="#363332"/>
<path d="M14.8238 12.7436C15.2487 12.8046 15.616 12.6862 15.6448 12.4779C15.6736 12.2697 15.3532 12.0544 14.9247 11.9969C14.4962 11.9395 14.1325 12.0544 14.1037 12.2626C14.0749 12.4708 14.399 12.6862 14.8238 12.7436ZM15.0075 11.7062C15.4324 11.7636 15.7996 11.6451 15.8285 11.4369C15.8573 11.2287 15.5368 11.0169 15.1083 10.9559C14.6798 10.8949 14.3161 11.0169 14.2873 11.2215C14.2585 11.4262 14.5826 11.6451 15.0075 11.7062ZM18.0069 12.4241C18.4318 12.4815 18.7991 12.3631 18.8279 12.1549C18.8567 11.9467 18.5362 11.7349 18.1077 11.6738C17.6792 11.6128 17.3156 11.7349 17.2868 11.9395C17.258 12.1441 17.582 12.3487 18.0069 12.4097V12.4241ZM12.0909 11.0026C12.5158 11.0636 12.883 10.9415 12.9154 10.7369C12.9478 10.5323 12.6238 10.3133 12.1953 10.2559C11.7668 10.1985 11.4031 10.3133 11.3743 10.5215C11.3455 10.7297 11.6624 10.9415 12.0909 11.0026ZM15.1839 10.7477C15.6088 10.8087 15.9761 10.6867 16.0049 10.4821C16.0337 10.2774 15.7132 10.0585 15.2847 9.99743C14.8562 9.93641 14.4926 10.0585 14.4638 10.2667C14.435 10.4749 14.759 10.6867 15.1839 10.7477ZM10.3769 13.282C10.6398 13.282 10.8414 12.9482 10.827 12.5641C10.8126 12.18 10.5821 11.8462 10.3301 11.8641C10.078 11.882 9.86199 12.2051 9.86199 12.5892C9.86199 12.9733 10.114 13.282 10.3769 13.282ZM12.8074 15.1092C13.0703 15.1092 13.2719 14.7754 13.2575 14.3913C13.2431 14.0072 13.0199 13.6733 12.757 13.6985C12.4941 13.7236 12.2925 14.0323 12.3069 14.4164C12.3213 14.8005 12.5446 15.1164 12.8074 15.1092ZM10.0888 15.0769C10.3517 15.0769 10.5533 14.7431 10.5389 14.359C10.5245 13.9749 10.3013 13.641 10.0384 13.6662C9.77557 13.6913 9.57393 14 9.58833 14.3841C9.60274 14.7682 9.82598 15.102 10.0888 15.0769ZM12.4653 17.0441C12.7282 17.0441 12.9298 16.7103 12.9154 16.3262C12.901 15.942 12.6778 15.6082 12.4149 15.6333C12.1521 15.6585 11.9504 15.9708 11.9648 16.3513C11.9792 16.7318 12.2025 17.0692 12.4653 17.0585V17.0441ZM9.78998 16.782C10.0528 16.782 10.2545 16.4482 10.2401 16.0641C10.2257 15.68 10.0024 15.3462 9.74317 15.3713C9.48391 15.3964 9.27867 15.7051 9.28947 16.0892C9.30027 16.4733 9.52712 16.8036 9.78998 16.7964V16.782ZM12.1017 18.9359C12.3609 18.9359 12.5626 18.602 12.5518 18.2179C12.541 17.8338 12.3141 17.5179 12.0513 17.5251C11.7884 17.5323 11.5868 17.859 11.6012 18.2431C11.6156 18.6272 11.8388 18.9467 12.1017 18.9359ZM15.2343 15.8344C15.4792 15.9887 15.8573 15.8344 16.0733 15.4754C16.1829 15.3465 16.239 15.1808 16.2303 15.012C16.2216 14.8433 16.1487 14.6842 16.0265 14.5672C15.778 14.4128 15.4036 14.5672 15.1839 14.9262C14.9643 15.2851 14.9859 15.68 15.2343 15.8344ZM14.399 19.3092C14.6474 19.4636 15.0219 19.3092 15.2415 18.9503C15.3514 18.8213 15.4075 18.6551 15.3981 18.4861C15.3887 18.3171 15.3146 18.1582 15.1911 18.042C14.9463 17.8877 14.5682 18.042 14.3485 18.401C14.1289 18.76 14.1541 19.1549 14.399 19.3092ZM18.2482 15.0769C18.4966 15.2313 18.8711 15.0769 19.0907 14.7179C19.3104 14.359 19.2888 13.9605 19.0403 13.8062C18.7919 13.6518 18.4174 13.8062 18.1978 14.1651C17.9781 14.5241 18.0033 14.9297 18.2482 15.0769ZM17.3012 18.4656C17.546 18.62 17.9241 18.4656 18.1437 18.1067C18.2531 17.9767 18.3087 17.8102 18.2993 17.6408C18.29 17.4715 18.2163 17.312 18.0933 17.1949C17.8485 17.0405 17.4704 17.1949 17.2508 17.5538C17.1395 17.6836 17.0827 17.8511 17.0921 18.0216C17.1015 18.1921 17.1764 18.3524 17.3012 18.4692V18.4656Z" fill="white"/>
</g>
<defs>
<clipPath id="clip0_21_70">
<rect width="153" height="28" fill="white" transform="translate(0.5)"/>
</clipPath>
</defs>
</svg>
