<svg width="133" height="36" viewBox="0 0 133 36" fill="none" xmlns="http://www.w3.org/2000/svg">
<g clip-path="url(#clip0_21891_140432)">
<path d="M12.3233 16.6727H16.6727V14.4196H19.3764V16.6727H23.7257H26.48C26.5499 17.113 26.5862 17.5645 26.5862 18.0245C26.5862 22.753 22.753 26.5862 18.0245 26.5862C14.899 26.5862 12.1646 24.9113 10.6699 22.4102L12.9942 21.0282C14.0173 22.7379 15.8872 23.8825 18.0245 23.8825C20.7945 23.8825 23.1155 21.9599 23.7257 19.3764H19.3764V21.6294H16.6727V19.3764H12.3233H9.56901C9.49917 18.936 9.46289 18.4845 9.46289 18.0245C9.46289 13.2961 13.2961 9.46289 18.0245 9.46289C21.1492 9.46289 23.8829 11.1368 25.3779 13.6368L23.0555 15.0219C22.0326 13.3117 20.1623 12.1666 18.0245 12.1666C15.2545 12.1666 12.9336 14.0891 12.3233 16.6727Z" fill="white"/>
<path d="M14.2852 7.63477C11.1955 8.74697 8.7463 11.1981 7.63477 14.2881H4.14258C5.46745 9.35415 9.3516 5.46936 14.2852 4.14355V7.63477Z" fill="url(#paint0_linear_21891_140432)" stroke="#92F8AE" stroke-width="0.270367"/>
<g filter="url(#filter0_i_21891_140432)">
<path d="M16.2222 3.62563V0H19.8271V3.62563V7.2098H16.2222V3.62563Z" fill="url(#paint1_linear_21891_140432)"/>
</g>
<path d="M19.6919 0.134766V7.07422H16.3569V0.134766H19.6919Z" stroke="#92F8AE" stroke-width="0.270367"/>
<path d="M21.7637 4.14355C26.6973 5.46933 30.5814 9.35413 31.9062 14.2881H28.4141C27.3025 11.1981 24.8533 8.74695 21.7637 7.63477V4.14355Z" fill="url(#paint2_linear_21891_140432)" stroke="#92F8AE" stroke-width="0.270367"/>
<g filter="url(#filter1_i_21891_140432)">
<path d="M32.423 16.2227H36.0487V19.8276H32.423H28.8389V16.2227H32.423Z" fill="url(#paint3_linear_21891_140432)"/>
</g>
<path d="M35.9131 16.3574V19.6924H28.9736V16.3574H35.9131Z" stroke="#92F8AE" stroke-width="0.270367"/>
<path d="M31.9053 21.7637C30.5797 26.6963 26.6962 30.5787 21.7637 31.9043V28.4131C24.8523 27.3011 27.3011 24.8523 28.4131 21.7637H31.9053Z" fill="url(#paint4_linear_21891_140432)" stroke="#92F8AE" stroke-width="0.270367"/>
<g filter="url(#filter2_i_21891_140432)">
<path d="M19.8271 32.4221V36.0477H16.2222V32.4221V28.8379H19.8271V32.4221Z" fill="url(#paint5_linear_21891_140432)"/>
</g>
<path d="M19.6919 28.9727V35.9121H16.3569V28.9727H19.6919Z" stroke="#92F8AE" stroke-width="0.270367"/>
<path d="M7.63477 21.7617C8.74622 24.8516 11.1956 27.3018 14.2852 28.4141V31.9053C9.35167 30.5794 5.46736 26.6957 4.14258 21.7617H7.63477Z" fill="url(#paint6_linear_21891_140432)" stroke="#92F8AE" stroke-width="0.270367"/>
<g filter="url(#filter3_i_21891_140432)">
<path d="M3.62563 19.8276H0V16.2227H3.62563H7.2098V19.8276H3.62563Z" fill="url(#paint7_linear_21891_140432)"/>
</g>
<path d="M7.07422 16.3574V19.6924H0.134766V16.3574H7.07422Z" stroke="#92F8AE" stroke-width="0.270367"/>
<path d="M84.6431 23.8496C84.5109 23.8496 84.4088 23.8076 84.3367 23.7234C84.2766 23.6393 84.2586 23.5312 84.2826 23.399L86.77 11.6831C86.794 11.5509 86.8601 11.4428 86.9683 11.3586C87.0764 11.2745 87.1966 11.2325 87.3287 11.2325H92.2314C93.7815 11.2325 94.9231 11.593 95.6561 12.3139C96.4011 13.0229 96.6354 14.0323 96.359 15.342C96.1788 16.1952 95.8183 16.9162 95.2775 17.505C94.7488 18.0938 94.118 18.5384 93.385 18.8388L94.9171 23.2728C94.9291 23.3089 94.9351 23.3389 94.9351 23.3629C94.9351 23.387 94.9291 23.423 94.9171 23.4711C94.905 23.5672 94.851 23.6573 94.7548 23.7415C94.6587 23.8136 94.5566 23.8496 94.4484 23.8496H92.0692C91.8409 23.8496 91.6847 23.7955 91.6005 23.6874C91.5284 23.5672 91.4744 23.4591 91.4383 23.3629L90.2307 19.3976H88.3742L87.527 23.399C87.503 23.5312 87.4369 23.6393 87.3287 23.7234C87.2206 23.8076 87.1004 23.8496 86.9683 23.8496H84.6431ZM88.9149 16.8561H91.0057C91.5705 16.8561 92.0211 16.7179 92.3576 16.4415C92.694 16.1652 92.9163 15.7867 93.0245 15.306C93.1206 14.8374 93.0605 14.4588 92.8442 14.1705C92.64 13.8821 92.2434 13.7379 91.6546 13.7379H89.5818L88.9149 16.8561ZM95.7175 23.8496C95.5733 23.8496 95.4711 23.7895 95.411 23.6694C95.351 23.5492 95.357 23.429 95.4291 23.3089L102.116 11.7372C102.188 11.605 102.29 11.4908 102.423 11.3947C102.555 11.2865 102.723 11.2325 102.927 11.2325H105.703C105.907 11.2325 106.051 11.2865 106.136 11.3947C106.232 11.4908 106.286 11.605 106.298 11.7372L108.064 23.3089C108.1 23.4771 108.07 23.6093 107.974 23.7054C107.878 23.8015 107.77 23.8496 107.65 23.8496H105.469C105.288 23.8496 105.156 23.8076 105.072 23.7234C105 23.6393 104.952 23.5432 104.928 23.435L104.622 21.6326H99.809L98.7275 23.4711C98.6675 23.5552 98.5833 23.6393 98.4752 23.7234C98.3791 23.8076 98.2409 23.8496 98.0606 23.8496H95.7175ZM101.089 19.0371H104.441L103.774 14.2786L101.089 19.0371ZM111.871 23.8496C111.666 23.8496 111.51 23.7955 111.402 23.6874C111.306 23.5792 111.252 23.4531 111.24 23.3089L110.014 11.7191C110.002 11.5629 110.038 11.4428 110.122 11.3586C110.206 11.2745 110.315 11.2325 110.447 11.2325H112.61C112.802 11.2325 112.94 11.2865 113.024 11.3947C113.108 11.4908 113.156 11.593 113.168 11.7011L113.943 20.0284L118.269 11.7011C118.317 11.593 118.402 11.4908 118.522 11.3947C118.642 11.2865 118.798 11.2325 118.99 11.2325H121.406C121.55 11.2325 121.64 11.2925 121.676 11.4127C121.724 11.5209 121.718 11.641 121.658 11.7732L115.53 23.3089C115.458 23.4531 115.349 23.5792 115.205 23.6874C115.073 23.7955 114.899 23.8496 114.682 23.8496H111.871ZM121.232 23.8496C121.112 23.8496 121.016 23.8076 120.943 23.7234C120.871 23.6393 120.847 23.5312 120.871 23.399L123.359 11.6831C123.383 11.5509 123.449 11.4428 123.557 11.3586C123.665 11.2745 123.779 11.2325 123.899 11.2325H132.317C132.449 11.2325 132.545 11.2745 132.605 11.3586C132.677 11.4428 132.701 11.5509 132.677 11.6831L132.335 13.3774C132.311 13.5096 132.245 13.6177 132.137 13.7018C132.028 13.7859 131.908 13.828 131.776 13.828H126.026L125.504 16.2613H130.839C130.971 16.2613 131.073 16.3094 131.145 16.4055C131.217 16.4896 131.241 16.5978 131.217 16.7299L130.875 18.2981C130.851 18.4182 130.785 18.5264 130.677 18.6225C130.581 18.7066 130.466 18.7487 130.334 18.7487H124.981L124.458 21.2541H130.334C130.466 21.2541 130.562 21.2961 130.623 21.3803C130.695 21.4644 130.719 21.5725 130.695 21.7047L130.334 23.399C130.31 23.5312 130.244 23.6393 130.136 23.7234C130.04 23.8076 129.926 23.8496 129.793 23.8496H121.232Z" fill="white"/>
<path d="M84.6431 23.8496C84.5109 23.8496 84.4088 23.8076 84.3367 23.7234C84.2766 23.6393 84.2586 23.5312 84.2826 23.399L86.77 11.6831C86.794 11.5509 86.8601 11.4428 86.9683 11.3586C87.0764 11.2745 87.1966 11.2325 87.3287 11.2325H92.2314C93.7815 11.2325 94.9231 11.593 95.6561 12.3139C96.4011 13.0229 96.6354 14.0323 96.359 15.342C96.1788 16.1952 95.8183 16.9162 95.2775 17.505C94.7488 18.0938 94.118 18.5384 93.385 18.8388L94.9171 23.2728C94.9291 23.3089 94.9351 23.3389 94.9351 23.3629C94.9351 23.387 94.9291 23.423 94.9171 23.4711C94.905 23.5672 94.851 23.6573 94.7548 23.7415C94.6587 23.8136 94.5566 23.8496 94.4484 23.8496H92.0692C91.8409 23.8496 91.6847 23.7955 91.6005 23.6874C91.5284 23.5672 91.4744 23.4591 91.4383 23.3629L90.2307 19.3976H88.3742L87.527 23.399C87.503 23.5312 87.4369 23.6393 87.3287 23.7234C87.2206 23.8076 87.1004 23.8496 86.9683 23.8496H84.6431ZM88.9149 16.8561H91.0057C91.5705 16.8561 92.0211 16.7179 92.3576 16.4415C92.694 16.1652 92.9163 15.7867 93.0245 15.306C93.1206 14.8374 93.0605 14.4588 92.8442 14.1705C92.64 13.8821 92.2434 13.7379 91.6546 13.7379H89.5818L88.9149 16.8561ZM95.7175 23.8496C95.5733 23.8496 95.4711 23.7895 95.411 23.6694C95.351 23.5492 95.357 23.429 95.4291 23.3089L102.116 11.7372C102.188 11.605 102.29 11.4908 102.423 11.3947C102.555 11.2865 102.723 11.2325 102.927 11.2325H105.703C105.907 11.2325 106.051 11.2865 106.136 11.3947C106.232 11.4908 106.286 11.605 106.298 11.7372L108.064 23.3089C108.1 23.4771 108.07 23.6093 107.974 23.7054C107.878 23.8015 107.77 23.8496 107.65 23.8496H105.469C105.288 23.8496 105.156 23.8076 105.072 23.7234C105 23.6393 104.952 23.5432 104.928 23.435L104.622 21.6326H99.809L98.7275 23.4711C98.6675 23.5552 98.5833 23.6393 98.4752 23.7234C98.3791 23.8076 98.2409 23.8496 98.0606 23.8496H95.7175ZM101.089 19.0371H104.441L103.774 14.2786L101.089 19.0371ZM111.871 23.8496C111.666 23.8496 111.51 23.7955 111.402 23.6874C111.306 23.5792 111.252 23.4531 111.24 23.3089L110.014 11.7191C110.002 11.5629 110.038 11.4428 110.122 11.3586C110.206 11.2745 110.315 11.2325 110.447 11.2325H112.61C112.802 11.2325 112.94 11.2865 113.024 11.3947C113.108 11.4908 113.156 11.593 113.168 11.7011L113.943 20.0284L118.269 11.7011C118.317 11.593 118.402 11.4908 118.522 11.3947C118.642 11.2865 118.798 11.2325 118.99 11.2325H121.406C121.55 11.2325 121.64 11.2925 121.676 11.4127C121.724 11.5209 121.718 11.641 121.658 11.7732L115.53 23.3089C115.458 23.4531 115.349 23.5792 115.205 23.6874C115.073 23.7955 114.899 23.8496 114.682 23.8496H111.871ZM121.232 23.8496C121.112 23.8496 121.016 23.8076 120.943 23.7234C120.871 23.6393 120.847 23.5312 120.871 23.399L123.359 11.6831C123.383 11.5509 123.449 11.4428 123.557 11.3586C123.665 11.2745 123.779 11.2325 123.899 11.2325H132.317C132.449 11.2325 132.545 11.2745 132.605 11.3586C132.677 11.4428 132.701 11.5509 132.677 11.6831L132.335 13.3774C132.311 13.5096 132.245 13.6177 132.137 13.7018C132.028 13.7859 131.908 13.828 131.776 13.828H126.026L125.504 16.2613H130.839C130.971 16.2613 131.073 16.3094 131.145 16.4055C131.217 16.4896 131.241 16.5978 131.217 16.7299L130.875 18.2981C130.851 18.4182 130.785 18.5264 130.677 18.6225C130.581 18.7066 130.466 18.7487 130.334 18.7487H124.981L124.458 21.2541H130.334C130.466 21.2541 130.562 21.2961 130.623 21.3803C130.695 21.4644 130.719 21.5725 130.695 21.7047L130.334 23.399C130.31 23.5312 130.244 23.6393 130.136 23.7234C130.04 23.8076 129.926 23.8496 129.793 23.8496H121.232Z" fill="url(#paint8_linear_21891_140432)"/>
<path d="M84.6431 23.8496C84.5109 23.8496 84.4088 23.8076 84.3367 23.7234C84.2766 23.6393 84.2586 23.5312 84.2826 23.399L86.77 11.6831C86.794 11.5509 86.8601 11.4428 86.9683 11.3586C87.0764 11.2745 87.1966 11.2325 87.3287 11.2325H92.2314C93.7815 11.2325 94.9231 11.593 95.6561 12.3139C96.4011 13.0229 96.6354 14.0323 96.359 15.342C96.1788 16.1952 95.8183 16.9162 95.2775 17.505C94.7488 18.0938 94.118 18.5384 93.385 18.8388L94.9171 23.2728C94.9291 23.3089 94.9351 23.3389 94.9351 23.3629C94.9351 23.387 94.9291 23.423 94.9171 23.4711C94.905 23.5672 94.851 23.6573 94.7548 23.7415C94.6587 23.8136 94.5566 23.8496 94.4484 23.8496H92.0692C91.8409 23.8496 91.6847 23.7955 91.6005 23.6874C91.5284 23.5672 91.4744 23.4591 91.4383 23.3629L90.2307 19.3976H88.3742L87.527 23.399C87.503 23.5312 87.4369 23.6393 87.3287 23.7234C87.2206 23.8076 87.1004 23.8496 86.9683 23.8496H84.6431ZM88.9149 16.8561H91.0057C91.5705 16.8561 92.0211 16.7179 92.3576 16.4415C92.694 16.1652 92.9163 15.7867 93.0245 15.306C93.1206 14.8374 93.0605 14.4588 92.8442 14.1705C92.64 13.8821 92.2434 13.7379 91.6546 13.7379H89.5818L88.9149 16.8561ZM95.7175 23.8496C95.5733 23.8496 95.4711 23.7895 95.411 23.6694C95.351 23.5492 95.357 23.429 95.4291 23.3089L102.116 11.7372C102.188 11.605 102.29 11.4908 102.423 11.3947C102.555 11.2865 102.723 11.2325 102.927 11.2325H105.703C105.907 11.2325 106.051 11.2865 106.136 11.3947C106.232 11.4908 106.286 11.605 106.298 11.7372L108.064 23.3089C108.1 23.4771 108.07 23.6093 107.974 23.7054C107.878 23.8015 107.77 23.8496 107.65 23.8496H105.469C105.288 23.8496 105.156 23.8076 105.072 23.7234C105 23.6393 104.952 23.5432 104.928 23.435L104.622 21.6326H99.809L98.7275 23.4711C98.6675 23.5552 98.5833 23.6393 98.4752 23.7234C98.3791 23.8076 98.2409 23.8496 98.0606 23.8496H95.7175ZM101.089 19.0371H104.441L103.774 14.2786L101.089 19.0371ZM111.871 23.8496C111.666 23.8496 111.51 23.7955 111.402 23.6874C111.306 23.5792 111.252 23.4531 111.24 23.3089L110.014 11.7191C110.002 11.5629 110.038 11.4428 110.122 11.3586C110.206 11.2745 110.315 11.2325 110.447 11.2325H112.61C112.802 11.2325 112.94 11.2865 113.024 11.3947C113.108 11.4908 113.156 11.593 113.168 11.7011L113.943 20.0284L118.269 11.7011C118.317 11.593 118.402 11.4908 118.522 11.3947C118.642 11.2865 118.798 11.2325 118.99 11.2325H121.406C121.55 11.2325 121.64 11.2925 121.676 11.4127C121.724 11.5209 121.718 11.641 121.658 11.7732L115.53 23.3089C115.458 23.4531 115.349 23.5792 115.205 23.6874C115.073 23.7955 114.899 23.8496 114.682 23.8496H111.871ZM121.232 23.8496C121.112 23.8496 121.016 23.8076 120.943 23.7234C120.871 23.6393 120.847 23.5312 120.871 23.399L123.359 11.6831C123.383 11.5509 123.449 11.4428 123.557 11.3586C123.665 11.2745 123.779 11.2325 123.899 11.2325H132.317C132.449 11.2325 132.545 11.2745 132.605 11.3586C132.677 11.4428 132.701 11.5509 132.677 11.6831L132.335 13.3774C132.311 13.5096 132.245 13.6177 132.137 13.7018C132.028 13.7859 131.908 13.828 131.776 13.828H126.026L125.504 16.2613H130.839C130.971 16.2613 131.073 16.3094 131.145 16.4055C131.217 16.4896 131.241 16.5978 131.217 16.7299L130.875 18.2981C130.851 18.4182 130.785 18.5264 130.677 18.6225C130.581 18.7066 130.466 18.7487 130.334 18.7487H124.981L124.458 21.2541H130.334C130.466 21.2541 130.562 21.2961 130.623 21.3803C130.695 21.4644 130.719 21.5725 130.695 21.7047L130.334 23.399C130.31 23.5312 130.244 23.6393 130.136 23.7234C130.04 23.8076 129.926 23.8496 129.793 23.8496H121.232Z" fill="url(#paint9_radial_21891_140432)"/>
<path d="M47.1343 24.0299C45.9326 24.0299 44.9473 23.8616 44.1782 23.5252C43.4212 23.1887 42.8745 22.7441 42.538 22.1914C42.2136 21.6266 42.0994 21.0318 42.1955 20.4069C42.2196 20.3108 42.2676 20.2267 42.3397 20.1546C42.4239 20.0705 42.52 20.0284 42.6281 20.0284H44.9353C45.1035 20.0284 45.2237 20.0585 45.2958 20.1185C45.3679 20.1786 45.44 20.2567 45.5121 20.3529C45.5601 20.5331 45.6563 20.7073 45.8004 20.8756C45.9446 21.0438 46.1429 21.182 46.3953 21.2901C46.6596 21.3863 46.9841 21.4343 47.3686 21.4343C48.0655 21.4343 48.6243 21.3262 49.0449 21.1099C49.4654 20.8936 49.7118 20.5992 49.7839 20.2267C49.856 19.9623 49.8079 19.746 49.6397 19.5778C49.4835 19.3976 49.2011 19.2413 48.7925 19.1092C48.396 18.965 47.8612 18.8208 47.1883 18.6766C46.3111 18.4843 45.5902 18.22 45.0254 17.8835C44.4606 17.535 44.0641 17.0964 43.8358 16.5677C43.6195 16.027 43.5894 15.3841 43.7457 14.6391C43.986 13.5336 44.5808 12.6624 45.5301 12.0255C46.4794 11.3767 47.711 11.0522 49.2251 11.0522C50.0062 11.0522 50.6971 11.1604 51.2979 11.3767C51.9108 11.593 52.4214 11.8813 52.83 12.2418C53.2386 12.6023 53.533 12.9868 53.7132 13.3954C53.8934 13.7919 53.9535 14.1825 53.8934 14.567C53.8814 14.6631 53.8334 14.7532 53.7492 14.8374C53.6651 14.9095 53.569 14.9455 53.4609 14.9455H51.0456C50.9254 14.9455 50.8173 14.9215 50.7211 14.8734C50.637 14.8253 50.5649 14.7472 50.5048 14.6391C50.5048 14.3747 50.3667 14.1464 50.0903 13.9542C49.8139 13.7499 49.4474 13.6477 48.9908 13.6477C48.4741 13.6477 48.0415 13.7439 47.693 13.9361C47.3445 14.1164 47.1283 14.3988 47.0441 14.7833C46.9841 15.0236 47.0141 15.2339 47.1343 15.4141C47.2664 15.5944 47.5068 15.7506 47.8552 15.8828C48.2157 16.015 48.7084 16.1532 49.3332 16.2973C50.3907 16.5016 51.2198 16.778 51.8206 17.1265C52.4214 17.4629 52.824 17.8895 53.0283 18.4062C53.2446 18.9229 53.2746 19.5538 53.1184 20.2988C52.854 21.5244 52.2112 22.4557 51.1898 23.0926C50.1804 23.7174 48.8286 24.0299 47.1343 24.0299ZM54.5984 23.8496C54.4782 23.8496 54.3821 23.8076 54.31 23.7234C54.2379 23.6393 54.2138 23.5312 54.2379 23.399L56.7253 11.6831C56.7493 11.5509 56.8094 11.4428 56.9055 11.3586C57.0137 11.2745 57.1278 11.2325 57.248 11.2325H59.5371C59.6693 11.2325 59.7714 11.2745 59.8435 11.3586C59.9156 11.4428 59.9396 11.5509 59.9156 11.6831L59.0684 15.6124L63.0699 11.5749C63.142 11.5028 63.2381 11.4307 63.3583 11.3586C63.4784 11.2745 63.6407 11.2325 63.8449 11.2325H66.5126C66.6808 11.2325 66.7829 11.3106 66.819 11.4668C66.867 11.611 66.837 11.7311 66.7289 11.8273L61.2134 17.505L64.62 23.2548C64.7161 23.411 64.7101 23.5492 64.602 23.6694C64.4938 23.7895 64.3737 23.8496 64.2415 23.8496H61.718C61.5258 23.8496 61.3816 23.8136 61.2855 23.7415C61.1893 23.6694 61.1172 23.5853 61.0692 23.4891L58.3655 18.983L57.4102 23.399C57.3862 23.5312 57.3261 23.6393 57.2299 23.7234C57.1338 23.8076 57.0197 23.8496 56.8875 23.8496H54.5984ZM66.4269 23.8496C66.2948 23.8496 66.1926 23.8076 66.1205 23.7234C66.0484 23.6393 66.0244 23.5312 66.0484 23.399L68.5538 11.6831C68.5779 11.5509 68.644 11.4428 68.7521 11.3586C68.8602 11.2745 68.9744 11.2325 69.0946 11.2325H71.5279C71.648 11.2325 71.7442 11.2745 71.8163 11.3586C71.8884 11.4428 71.9124 11.5509 71.8884 11.6831L69.383 23.399C69.3589 23.5312 69.2928 23.6393 69.1847 23.7234C69.0886 23.8076 68.9804 23.8496 68.8602 23.8496H66.4269ZM72.2708 23.8496C72.1507 23.8496 72.0545 23.8076 71.9824 23.7234C71.9103 23.6393 71.8863 23.5312 71.9103 23.399L74.3977 11.6831C74.4217 11.5509 74.4818 11.4428 74.578 11.3586C74.6861 11.2745 74.8063 11.2325 74.9384 11.2325H76.849C77.0413 11.2325 77.1735 11.2745 77.2456 11.3586C77.3177 11.4428 77.3657 11.5148 77.3898 11.5749L80.3278 18.5504L81.7877 11.6831C81.8118 11.5509 81.8779 11.4428 81.986 11.3586C82.0942 11.2745 82.2083 11.2325 82.3285 11.2325H84.4914C84.6236 11.2325 84.7197 11.2745 84.7798 11.3586C84.8519 11.4428 84.8759 11.5509 84.8519 11.6831L82.3645 23.399C82.3405 23.5192 82.2744 23.6273 82.1663 23.7234C82.0701 23.8076 81.956 23.8496 81.8238 23.8496H79.9132C79.7209 23.8496 79.5888 23.8076 79.5167 23.7234C79.4446 23.6273 79.3965 23.5552 79.3725 23.5071L76.3984 16.784L74.9745 23.399C74.9505 23.5312 74.8844 23.6393 74.7762 23.7234C74.6801 23.8076 74.5659 23.8496 74.4338 23.8496H72.2708Z" fill="url(#paint10_radial_21891_140432)"/>
<path d="M47.1343 24.0299C45.9326 24.0299 44.9473 23.8616 44.1782 23.5252C43.4212 23.1887 42.8745 22.7441 42.538 22.1914C42.2136 21.6266 42.0994 21.0318 42.1955 20.4069C42.2196 20.3108 42.2676 20.2267 42.3397 20.1546C42.4239 20.0705 42.52 20.0284 42.6281 20.0284H44.9353C45.1035 20.0284 45.2237 20.0585 45.2958 20.1185C45.3679 20.1786 45.44 20.2567 45.5121 20.3529C45.5601 20.5331 45.6563 20.7073 45.8004 20.8756C45.9446 21.0438 46.1429 21.182 46.3953 21.2901C46.6596 21.3863 46.9841 21.4343 47.3686 21.4343C48.0655 21.4343 48.6243 21.3262 49.0449 21.1099C49.4654 20.8936 49.7118 20.5992 49.7839 20.2267C49.856 19.9623 49.8079 19.746 49.6397 19.5778C49.4835 19.3976 49.2011 19.2413 48.7925 19.1092C48.396 18.965 47.8612 18.8208 47.1883 18.6766C46.3111 18.4843 45.5902 18.22 45.0254 17.8835C44.4606 17.535 44.0641 17.0964 43.8358 16.5677C43.6195 16.027 43.5894 15.3841 43.7457 14.6391C43.986 13.5336 44.5808 12.6624 45.5301 12.0255C46.4794 11.3767 47.711 11.0522 49.2251 11.0522C50.0062 11.0522 50.6971 11.1604 51.2979 11.3767C51.9108 11.593 52.4214 11.8813 52.83 12.2418C53.2386 12.6023 53.533 12.9868 53.7132 13.3954C53.8934 13.7919 53.9535 14.1825 53.8934 14.567C53.8814 14.6631 53.8334 14.7532 53.7492 14.8374C53.6651 14.9095 53.569 14.9455 53.4609 14.9455H51.0456C50.9254 14.9455 50.8173 14.9215 50.7211 14.8734C50.637 14.8253 50.5649 14.7472 50.5048 14.6391C50.5048 14.3747 50.3667 14.1464 50.0903 13.9542C49.8139 13.7499 49.4474 13.6477 48.9908 13.6477C48.4741 13.6477 48.0415 13.7439 47.693 13.9361C47.3445 14.1164 47.1283 14.3988 47.0441 14.7833C46.9841 15.0236 47.0141 15.2339 47.1343 15.4141C47.2664 15.5944 47.5068 15.7506 47.8552 15.8828C48.2157 16.015 48.7084 16.1532 49.3332 16.2973C50.3907 16.5016 51.2198 16.778 51.8206 17.1265C52.4214 17.4629 52.824 17.8895 53.0283 18.4062C53.2446 18.9229 53.2746 19.5538 53.1184 20.2988C52.854 21.5244 52.2112 22.4557 51.1898 23.0926C50.1804 23.7174 48.8286 24.0299 47.1343 24.0299ZM54.5984 23.8496C54.4782 23.8496 54.3821 23.8076 54.31 23.7234C54.2379 23.6393 54.2138 23.5312 54.2379 23.399L56.7253 11.6831C56.7493 11.5509 56.8094 11.4428 56.9055 11.3586C57.0137 11.2745 57.1278 11.2325 57.248 11.2325H59.5371C59.6693 11.2325 59.7714 11.2745 59.8435 11.3586C59.9156 11.4428 59.9396 11.5509 59.9156 11.6831L59.0684 15.6124L63.0699 11.5749C63.142 11.5028 63.2381 11.4307 63.3583 11.3586C63.4784 11.2745 63.6407 11.2325 63.8449 11.2325H66.5126C66.6808 11.2325 66.7829 11.3106 66.819 11.4668C66.867 11.611 66.837 11.7311 66.7289 11.8273L61.2134 17.505L64.62 23.2548C64.7161 23.411 64.7101 23.5492 64.602 23.6694C64.4938 23.7895 64.3737 23.8496 64.2415 23.8496H61.718C61.5258 23.8496 61.3816 23.8136 61.2855 23.7415C61.1893 23.6694 61.1172 23.5853 61.0692 23.4891L58.3655 18.983L57.4102 23.399C57.3862 23.5312 57.3261 23.6393 57.2299 23.7234C57.1338 23.8076 57.0197 23.8496 56.8875 23.8496H54.5984ZM66.4269 23.8496C66.2948 23.8496 66.1926 23.8076 66.1205 23.7234C66.0484 23.6393 66.0244 23.5312 66.0484 23.399L68.5538 11.6831C68.5779 11.5509 68.644 11.4428 68.7521 11.3586C68.8602 11.2745 68.9744 11.2325 69.0946 11.2325H71.5279C71.648 11.2325 71.7442 11.2745 71.8163 11.3586C71.8884 11.4428 71.9124 11.5509 71.8884 11.6831L69.383 23.399C69.3589 23.5312 69.2928 23.6393 69.1847 23.7234C69.0886 23.8076 68.9804 23.8496 68.8602 23.8496H66.4269ZM72.2708 23.8496C72.1507 23.8496 72.0545 23.8076 71.9824 23.7234C71.9103 23.6393 71.8863 23.5312 71.9103 23.399L74.3977 11.6831C74.4217 11.5509 74.4818 11.4428 74.578 11.3586C74.6861 11.2745 74.8063 11.2325 74.9384 11.2325H76.849C77.0413 11.2325 77.1735 11.2745 77.2456 11.3586C77.3177 11.4428 77.3657 11.5148 77.3898 11.5749L80.3278 18.5504L81.7877 11.6831C81.8118 11.5509 81.8779 11.4428 81.986 11.3586C82.0942 11.2745 82.2083 11.2325 82.3285 11.2325H84.4914C84.6236 11.2325 84.7197 11.2745 84.7798 11.3586C84.8519 11.4428 84.8759 11.5509 84.8519 11.6831L82.3645 23.399C82.3405 23.5192 82.2744 23.6273 82.1663 23.7234C82.0701 23.8076 81.956 23.8496 81.8238 23.8496H79.9132C79.7209 23.8496 79.5888 23.8076 79.5167 23.7234C79.4446 23.6273 79.3965 23.5552 79.3725 23.5071L76.3984 16.784L74.9745 23.399C74.9505 23.5312 74.8844 23.6393 74.7762 23.7234C74.6801 23.8076 74.5659 23.8496 74.4338 23.8496H72.2708Z" fill="url(#paint11_linear_21891_140432)"/>
</g>
<defs>
<filter id="filter0_i_21891_140432" x="16.2222" y="0" width="3.60498" height="10.4676" filterUnits="userSpaceOnUse" color-interpolation-filters="sRGB">
<feFlood flood-opacity="0" result="BackgroundImageFix"/>
<feBlend mode="normal" in="SourceGraphic" in2="BackgroundImageFix" result="shape"/>
<feColorMatrix in="SourceAlpha" type="matrix" values="0 0 0 0 0 0 0 0 0 0 0 0 0 0 0 0 0 0 127 0" result="hardAlpha"/>
<feOffset dy="3.25862"/>
<feGaussianBlur stdDeviation="1.62931"/>
<feComposite in2="hardAlpha" operator="arithmetic" k2="-1" k3="1"/>
<feColorMatrix type="matrix" values="0 0 0 0 0 0 0 0 0 0 0 0 0 0 0 0 0 0 0.25 0"/>
<feBlend mode="normal" in2="shape" result="effect1_innerShadow_21891_140432"/>
</filter>
<filter id="filter1_i_21891_140432" x="28.8389" y="16.2227" width="7.20996" height="6.86409" filterUnits="userSpaceOnUse" color-interpolation-filters="sRGB">
<feFlood flood-opacity="0" result="BackgroundImageFix"/>
<feBlend mode="normal" in="SourceGraphic" in2="BackgroundImageFix" result="shape"/>
<feColorMatrix in="SourceAlpha" type="matrix" values="0 0 0 0 0 0 0 0 0 0 0 0 0 0 0 0 0 0 127 0" result="hardAlpha"/>
<feOffset dy="3.25862"/>
<feGaussianBlur stdDeviation="1.62931"/>
<feComposite in2="hardAlpha" operator="arithmetic" k2="-1" k3="1"/>
<feColorMatrix type="matrix" values="0 0 0 0 0 0 0 0 0 0 0 0 0 0 0 0 0 0 0.25 0"/>
<feBlend mode="normal" in2="shape" result="effect1_innerShadow_21891_140432"/>
</filter>
<filter id="filter2_i_21891_140432" x="16.2222" y="28.8379" width="3.60498" height="10.4676" filterUnits="userSpaceOnUse" color-interpolation-filters="sRGB">
<feFlood flood-opacity="0" result="BackgroundImageFix"/>
<feBlend mode="normal" in="SourceGraphic" in2="BackgroundImageFix" result="shape"/>
<feColorMatrix in="SourceAlpha" type="matrix" values="0 0 0 0 0 0 0 0 0 0 0 0 0 0 0 0 0 0 127 0" result="hardAlpha"/>
<feOffset dy="3.25862"/>
<feGaussianBlur stdDeviation="1.62931"/>
<feComposite in2="hardAlpha" operator="arithmetic" k2="-1" k3="1"/>
<feColorMatrix type="matrix" values="0 0 0 0 0 0 0 0 0 0 0 0 0 0 0 0 0 0 0.25 0"/>
<feBlend mode="normal" in2="shape" result="effect1_innerShadow_21891_140432"/>
</filter>
<filter id="filter3_i_21891_140432" x="0" y="16.2227" width="7.20996" height="6.86409" filterUnits="userSpaceOnUse" color-interpolation-filters="sRGB">
<feFlood flood-opacity="0" result="BackgroundImageFix"/>
<feBlend mode="normal" in="SourceGraphic" in2="BackgroundImageFix" result="shape"/>
<feColorMatrix in="SourceAlpha" type="matrix" values="0 0 0 0 0 0 0 0 0 0 0 0 0 0 0 0 0 0 127 0" result="hardAlpha"/>
<feOffset dy="3.25862"/>
<feGaussianBlur stdDeviation="1.62931"/>
<feComposite in2="hardAlpha" operator="arithmetic" k2="-1" k3="1"/>
<feColorMatrix type="matrix" values="0 0 0 0 0 0 0 0 0 0 0 0 0 0 0 0 0 0 0.25 0"/>
<feBlend mode="normal" in2="shape" result="effect1_innerShadow_21891_140432"/>
</filter>
<linearGradient id="paint0_linear_21891_140432" x1="5.63309" y1="14.4203" x2="14.2333" y2="5.45427" gradientUnits="userSpaceOnUse">
<stop offset="0.0238347" stop-color="#308A59"/>
<stop offset="0.300686" stop-color="#69C588"/>
<stop offset="0.521345" stop-color="#AEFFC5"/>
<stop offset="0.604614" stop-color="#8AE8A4"/>
<stop offset="0.797693" stop-color="#5DB97F"/>
<stop offset="1" stop-color="#308A59"/>
</linearGradient>
<linearGradient id="paint1_linear_21891_140432" x1="18.0246" y1="-0.675918" x2="18.0474" y2="8.56158" gradientUnits="userSpaceOnUse">
<stop stop-color="#AEFFC5"/>
<stop offset="0.09" stop-color="#308A59"/>
<stop offset="0.83" stop-color="#8AE8A4"/>
<stop offset="1" stop-color="#5CBE83"/>
</linearGradient>
<linearGradient id="paint2_linear_21891_140432" x1="30.2807" y1="14.4203" x2="21.4526" y2="5.95237" gradientUnits="userSpaceOnUse">
<stop offset="0.0238347" stop-color="#308A59"/>
<stop offset="0.300686" stop-color="#69C588"/>
<stop offset="0.521345" stop-color="#AEFFC5"/>
<stop offset="0.604614" stop-color="#8AE8A4"/>
<stop offset="0.797693" stop-color="#5DB97F"/>
<stop offset="1" stop-color="#308A59"/>
</linearGradient>
<linearGradient id="paint3_linear_21891_140432" x1="36.7696" y1="18.0251" x2="27.8491" y2="18.6704" gradientUnits="userSpaceOnUse">
<stop stop-color="#AEFFC5"/>
<stop offset="0.09" stop-color="#308A59"/>
<stop offset="0.83" stop-color="#8AE8A4"/>
<stop offset="1" stop-color="#5CBE83"/>
</linearGradient>
<linearGradient id="paint4_linear_21891_140432" x1="21.6289" y1="30.3708" x2="30.5435" y2="21.4415" gradientUnits="userSpaceOnUse">
<stop offset="0.0238347" stop-color="#308A59"/>
<stop offset="0.300686" stop-color="#69C588"/>
<stop offset="0.521345" stop-color="#AEFFC5"/>
<stop offset="0.604614" stop-color="#8AE8A4"/>
<stop offset="0.797693" stop-color="#5DB97F"/>
<stop offset="1" stop-color="#308A59"/>
</linearGradient>
<linearGradient id="paint5_linear_21891_140432" x1="18.0246" y1="36.7687" x2="18.0028" y2="27.9367" gradientUnits="userSpaceOnUse">
<stop stop-color="#AEFFC5"/>
<stop offset="0.09" stop-color="#308A59"/>
<stop offset="0.83" stop-color="#8AE8A4"/>
<stop offset="1" stop-color="#5CBE83"/>
</linearGradient>
<linearGradient id="paint6_linear_21891_140432" x1="14.42" y1="30.3716" x2="5.6351" y2="21.8127" gradientUnits="userSpaceOnUse">
<stop offset="0.0238347" stop-color="#308A59"/>
<stop offset="0.300686" stop-color="#69C588"/>
<stop offset="0.521345" stop-color="#AEFFC5"/>
<stop offset="0.604614" stop-color="#8AE8A4"/>
<stop offset="0.797693" stop-color="#5DB97F"/>
<stop offset="1" stop-color="#308A59"/>
</linearGradient>
<linearGradient id="paint7_linear_21891_140432" x1="-0.811102" y1="18.0251" x2="8.15423" y2="17.3765" gradientUnits="userSpaceOnUse">
<stop stop-color="#AEFFC5"/>
<stop offset="0.09" stop-color="#308A59"/>
<stop offset="0.83" stop-color="#8AE8A4"/>
<stop offset="1" stop-color="#5CBE83"/>
</linearGradient>
<linearGradient id="paint8_linear_21891_140432" x1="108.314" y1="29.7587" x2="108.314" y2="6.84961" gradientUnits="userSpaceOnUse">
<stop stop-color="white"/>
<stop offset="0.0001" stop-color="#F8F8F8"/>
<stop offset="0.255956" stop-color="#7A7A7A"/>
<stop offset="0.46" stop-color="white"/>
</linearGradient>
<radialGradient id="paint9_radial_21891_140432" cx="0" cy="0" r="1" gradientUnits="userSpaceOnUse" gradientTransform="translate(107.517 25.2221) rotate(90) scale(11.5545 78.7713)">
<stop stop-color="white"/>
<stop offset="0.06" stop-color="white" stop-opacity="0"/>
</radialGradient>
<radialGradient id="paint10_radial_21891_140432" cx="0" cy="0" r="1" gradientUnits="userSpaceOnUse" gradientTransform="translate(71.963 6.84961) rotate(90) scale(22.3504 59.7512)">
<stop stop-color="#4FEA9F"/>
<stop offset="1" stop-color="#38644F"/>
<stop offset="1" stop-color="#152F22"/>
</radialGradient>
<linearGradient id="paint11_linear_21891_140432" x1="71.963" y1="25.3395" x2="71.963" y2="11.2399" gradientUnits="userSpaceOnUse">
<stop stop-color="#AEFFC5"/>
<stop offset="0.0001" stop-color="#308A59"/>
<stop offset="0.53" stop-color="#8AE8A4"/>
<stop offset="1" stop-color="#5CBE83"/>
</linearGradient>
<clipPath id="clip0_21891_140432">
<rect width="133" height="36" fill="white"/>
</clipPath>
</defs>
</svg>
